# xmcd
#
# Track frame offsets:
#	150
#	8775
#	18567
#	81922
#	114602
#	131195
#	156980
#	170242
#	197950
#	219100
#	227842
#	243955
#	265260
#	274210
#	294680
#
# Disc length: 4248 seconds
# Revision: 0
# Processed by: cddbd v1.5.2PL0 Copyright (c) Steve Scherf et al.
# Submitted via: dBpowerAMP V12.0
#
DISCID=e110960f
DTITLE=Stevie Ray Vaughan and Double Trouble - Touch the Sky (Studio Sessions)
DYEAR=1984
DGENRE=Blues
TTITLE0=Little Wing
TTITLE1=Little Wing
TTITLE2=Little Wing/3 Stone From The Sun
TTITLE3=Life Without You
TTITLE4=So Excited
TTITLE5=Boiler Maker
TTITLE6=Shake and Bake
TTITLE7=Treat Me Right
TTITLE8=The Sky Is Crying
TTITLE9=Slip Sliding Slim
TTITLE10=Come On
TTITLE11=Come On
TTITLE12=Hug, Kiss And Squeeze
TTITLE13=Hang Nails And Boogers
TTITLE14=Right Or Wrong
EXTD=
EXTT0=
EXTT1=
EXTT2=
EXTT3=
EXTT4=
EXTT5=
EXTT6=
EXTT7=
EXTT8=
EXTT9=
EXTT10=
EXTT11=
EXTT12=
EXTT13=
EXTT14=
PLAYORDER=
